<svg width="193" height="248" viewBox="0 0 193 248" fill="none" xmlns="http://www.w3.org/2000/svg"><path d="M91.2921 33.0675C91.1284 29.4676 94.0029 26.4595 97.6065 26.4595C101.21 26.4595 104.085 29.4676 103.921 33.0675L101.756 80.7053C101.655 82.9235 99.8271 84.6701 97.6065 84.6701C95.386 84.6701 93.5582 82.9235 93.4574 80.7053L91.2921 33.0675Z" fill="#CE82FF"/><path d="M103.969 178.606C104.108 182.215 101.22 185.216 97.6088 185.216C93.9974 185.216 91.1094 182.215 91.2482 178.606L93.4873 120.387C93.5725 118.173 95.3926 116.421 97.6088 116.421C99.825 116.421 101.645 118.173 101.73 120.387L103.969 178.606Z" fill="#CE82FF"/><path d="M24.8387 106.885C21.234 107.035 18.2296 104.154 18.2296 100.546C18.2296 96.9379 21.234 94.0561 24.8387 94.2063L77.7667 96.4117C79.9829 96.504 81.7321 98.3276 81.7321 100.546C81.7321 102.764 79.9829 104.588 77.7667 104.68L24.8387 106.885Z" fill="#CE82FF"/><path d="M170.377 94.2065C173.981 94.0563 176.986 96.9381 176.986 100.546C176.986 104.154 173.981 107.036 170.377 106.885L117.449 104.68C115.232 104.588 113.483 102.764 113.483 100.546C113.483 98.3278 115.232 96.5042 117.449 96.4119L170.377 94.2065Z" fill="#CE82FF"/><path d="M49.6316 56.0538C47.4968 54.1223 47.4138 50.7972 49.4494 48.7615C51.4851 46.7258 54.8103 46.8089 56.7417 48.9437L79.4997 74.0972C80.693 75.4162 80.6425 77.4392 79.3848 78.6969C78.1271 79.9546 76.1041 80.0051 74.7852 78.8118L49.6316 56.0538Z" fill="#47D7FF"/><path d="M53.0242 149.634C51.0776 151.761 47.7494 151.835 45.7102 149.796C43.6711 147.757 43.745 144.429 45.8727 142.482L74.7997 116.017C76.11 114.818 78.1317 114.863 79.3875 116.119C80.6433 117.375 80.6882 119.396 79.4894 120.707L53.0242 149.634Z" fill="#47D7FF"/><path d="M139.566 48.8294C141.497 46.6946 144.822 46.6115 146.858 48.6472C148.894 50.6829 148.811 54.008 146.676 55.9395L121.522 78.6975C120.203 79.8908 118.18 79.8402 116.923 78.5826C115.665 77.3249 115.614 75.3019 116.808 73.9829L139.566 48.8294Z" fill="#47D7FF"/><path d="M150.438 142.482C152.566 144.429 152.64 147.757 150.601 149.796C148.562 151.835 145.233 151.761 143.287 149.634L116.822 120.707C115.623 119.396 115.668 117.375 116.923 116.119C118.179 114.863 120.201 114.818 121.511 116.017L150.438 142.482Z" fill="#47D7FF"/><rect x="93.6398" y="212.998" width="7.93781" height="34.6296" rx="3.96891" fill="#CE82FF"/></svg>