<svg width="208" height="261" viewBox="0 0 208 261" fill="none" xmlns="http://www.w3.org/2000/svg"><path d="M98.2785 36.0614C98.1029 32.1988 101.187 28.9712 105.054 28.9712C108.92 28.9712 112.005 32.1988 111.829 36.0614L109.506 87.1756C109.397 89.5557 107.436 91.4297 105.054 91.4297C102.671 91.4297 100.71 89.5557 100.602 87.1756L98.2785 36.0614Z" fill="#FFD900"/><path d="M111.88 192.22C112.029 196.092 108.93 199.312 105.055 199.312C101.18 199.312 98.0817 196.092 98.2306 192.22L100.633 129.753C100.725 127.377 102.677 125.498 105.055 125.498C107.433 125.498 109.386 127.377 109.478 129.753L111.88 192.22Z" fill="#FFD900"/><path d="M26.9752 115.266C23.1074 115.427 19.8838 112.335 19.8838 108.464C19.8838 104.593 23.1074 101.501 26.9752 101.662L83.7655 104.028C86.1436 104.127 88.0204 106.084 88.0204 108.464C88.0204 110.844 86.1436 112.801 83.7655 112.9L26.9752 115.266Z" fill="#FFD900"/><path d="M183.134 101.662C187.002 101.501 190.225 104.593 190.225 108.464C190.225 112.335 187.002 115.427 183.134 115.266L126.344 112.9C123.966 112.801 122.089 110.844 122.089 108.464C122.089 106.084 123.966 104.127 126.344 104.028L183.134 101.662Z" fill="#FFD900"/><path d="M53.5769 60.725C51.2864 58.6526 51.1972 55.0848 53.3814 52.9005C55.5657 50.7163 59.1335 50.8055 61.2059 53.096L85.6246 80.0852C86.9051 81.5003 86.8508 83.671 85.5013 85.0204C84.1519 86.3699 81.9812 86.4242 80.5661 85.1437L53.5769 60.725Z" fill="#FF7878"/><path d="M57.2174 161.134C55.1287 163.417 51.5576 163.496 49.3697 161.308C47.1817 159.12 47.261 155.549 49.544 153.461L80.582 125.064C81.9879 123.778 84.1571 123.826 85.5046 125.173C86.852 126.521 86.9001 128.69 85.6139 130.096L57.2174 161.134Z" fill="#FF7878"/><path d="M150.074 52.9737C152.146 50.6831 155.714 50.594 157.898 52.7782C160.082 54.9624 159.993 58.5302 157.703 60.6026L130.714 85.0214C129.298 86.3018 127.128 86.2475 125.778 84.8981C124.429 83.5486 124.375 81.378 125.655 79.9628L150.074 52.9737Z" fill="#FF7878"/><path d="M161.739 153.46C164.022 155.549 164.101 159.12 161.913 161.308C159.725 163.496 156.154 163.417 154.065 161.134L125.669 130.096C124.383 128.69 124.431 126.52 125.778 125.173C127.126 123.826 129.295 123.777 130.701 125.064L161.739 153.46Z" fill="#FF7878"/><rect x="100.797" y="229.123" width="8.51708" height="31.5924" rx="4.25854" fill="#FFD900"/></svg>