<svg width="218" height="273" viewBox="0 0 218 273" fill="none" xmlns="http://www.w3.org/2000/svg"><path d="M102.956 37.1865C102.772 33.1381 106.004 29.7554 110.057 29.7554V29.7554C114.109 29.7554 117.342 33.1381 117.158 37.1865L114.723 90.7581C114.609 93.2526 112.554 95.2167 110.057 95.2167V95.2167C107.56 95.2167 105.504 93.2526 105.391 90.7581L102.956 37.1865Z" fill="#ADE756"/><path d="M117.209 200.853C117.365 204.912 114.117 208.287 110.056 208.287V208.287C105.995 208.287 102.747 204.912 102.903 200.853L105.421 135.383C105.517 132.893 107.564 130.923 110.056 130.923V130.923C112.548 130.923 114.595 132.893 114.691 135.383L117.209 200.853Z" fill="#ADE756"/><path d="M28.2234 120.199C24.1696 120.368 20.791 117.127 20.791 113.07V113.07C20.791 109.013 24.1696 105.772 28.2234 105.941L87.744 108.421C90.2364 108.525 92.2034 110.576 92.2034 113.07V113.07C92.2034 115.564 90.2363 117.615 87.744 117.719L28.2234 120.199Z" fill="#ADE756"/><path d="M191.889 105.941C195.943 105.772 199.322 109.012 199.322 113.07V113.07C199.322 117.127 195.943 120.368 191.889 120.199L132.369 117.719C129.876 117.615 127.909 115.564 127.909 113.07V113.07C127.909 110.575 129.876 108.524 132.369 108.421L191.889 105.941Z" fill="#ADE756"/><path d="M56.1046 63.0356C53.7039 60.8635 53.6104 57.1242 55.8997 54.835V54.835C58.1889 52.5457 61.9283 52.6391 64.1003 55.0398L89.693 83.3265C91.035 84.8097 90.9782 87.0847 89.5638 88.4991V88.4991C88.1494 89.9134 85.8745 89.9703 84.3912 88.6283L56.1046 63.0356Z" fill="white"/><path d="M59.9186 168.272C57.7295 170.665 53.9868 170.748 51.6936 168.455V168.455C49.4004 166.161 49.4836 162.419 51.8763 160.23L84.4065 130.468C85.88 129.12 88.1536 129.17 89.5657 130.582V130.582C90.9779 131.995 91.0284 134.268 89.6803 135.742L59.9186 168.272Z" fill="white"/><path d="M157.24 54.9114C159.412 52.5107 163.152 52.4173 165.441 54.7066V54.7066C167.73 56.9958 167.637 60.7351 165.236 62.9072L136.949 88.4999C135.466 89.8419 133.191 89.785 131.777 88.3707V88.3707C130.362 86.9563 130.306 84.6813 131.648 83.1981L157.24 54.9114Z" fill="white"/><path d="M169.467 160.23C171.86 162.419 171.943 166.161 169.65 168.455V168.455C167.357 170.748 163.614 170.665 161.425 168.272L131.663 135.742C130.315 134.268 130.366 131.995 131.778 130.582V130.582C133.19 129.17 135.463 129.12 136.937 130.468L169.467 160.23Z" fill="white"/><rect x="105.594" y="239.529" width="8.92655" height="33.1113" rx="4.46328" fill="#ADE756"/></svg>